<svg id="Layer_1" data-name="Layer 1" xmlns="http://www.w3.org/2000/svg" viewBox="0 0 390.67 100.89"><defs><style>.cls-1{fill:#231f20;}.cls-2{fill:#275d38;}.cls-3{fill:#a9c47f;}</style></defs><path class="cls-1" d="M315.1,264.27,315,264H301.84l-27.55,70.66H286l8.3-21.91H322l8.54,21.91h12.11Zm-7,9.52c1.07,3.64,2.19,7.41,3.8,11.51l7.56,19.37H296.86l7.57-19.48C305.66,281.81,306.84,278.16,308.12,273.79Z" transform="translate(-142.23 -263.95)"/><path class="cls-1" d="M380,264l-13.65,34.73c-3,7.74-6.42,16.6-8.77,24.68-2-7.48-4.76-15.36-8.2-24.77L336.8,264H324.58l26.47,70.66h12.07l29-70.66Z" transform="translate(-142.23 -263.95)"/><rect class="cls-1" x="255.77" width="11.32" height="70.66"/><polygon class="cls-1" points="273.44 0 273.44 8.65 297.76 8.65 297.76 70.66 309.2 70.66 309.2 8.65 333.64 8.65 333.64 0 273.44 0"/><path class="cls-1" d="M503.86,264.27l-.13-.32H490.6L463,334.61h11.75l8.31-21.91h27.66l8.54,21.91h12.11Zm-7,9.52c1.07,3.64,2.2,7.41,3.8,11.51l7.57,19.37H485.62l7.57-19.48C494.41,281.81,495.59,278.17,496.87,273.79Z" transform="translate(-142.23 -263.95)"/><path class="cls-2" d="M239,323.38c6.14-1.24,11.28-3.48,17.86-4.28-6.38,24.57-22.44,45.66-59.28,42.15,12.07-13.16,29.53-20.94,45.71-30-19.42,4.14-36,17.3-52.15,27.14,6.58-34.37,22.87-59,47.86-75C241.6,295.05,243.9,312.38,239,323.38Z" transform="translate(-142.23 -263.95)"/><path class="cls-2" d="M182.6,359.81c-32.95,3.76-48.2-28.14-36.43-53.56.38,7.47,1.61,14.09,5,18.57-3.34-26,9.34-45,23.57-57.86.83-.12,1.27.16,1.43.71C162.35,294.76,170.05,338,182.6,359.81Z" transform="translate(-142.23 -263.95)"/><path class="cls-3" d="M199.49,281.71h0c-1.59-2.9-3.63-3.24-5.07-3-3.54.55-6.69,4.89-7.41,8.6-.57,2.94.3,5.27,2.46,6.56l.12,0a6.54,6.54,0,0,0,1.83.27,7.11,7.11,0,0,0,5.5-2.94C199.3,288.32,200.55,283.69,199.49,281.71Z" transform="translate(-142.23 -263.95)"/><path class="cls-3" d="M236.8,275c-5.83.88-11.18,4.08-17.39,7.78-2,1.22-4.14,2.48-6.36,3.71-1.65.91-3.6,2.14-5.66,3.44-6.19,3.9-13.89,8.76-18.28,7.93-1.76-.34-3.32-1.61-4.62-3.76-3.54-5.84-4.5-17.54-2.1-25.56l.05-.15,0-.15c-.14-.49-.58-1.3-2-1.11l-.3,0-.13.28c-12.18,28-6.49,69.73,6.47,91.21l.77,1.28.22-1.48c5-33.63,20.86-59.85,49.8-82.51l1.61-1.26Z" transform="translate(-142.23 -263.95)"/><path class="cls-1" d="M277.14,345v8.18h9.46V345h2.55v19.55H286.6v-9.16h-9.46v9.16h-2.52V345Z" transform="translate(-142.23 -263.95)"/><path class="cls-1" d="M309,355.39h-7.6v7.05h8.48v2.11h-11V345h10.56v2.12h-8v6.18H309Z" transform="translate(-142.23 -263.95)"/><path class="cls-1" d="M321.74,358.4l-2,6.15H317.1L323.75,345h3l6.67,19.55h-2.69l-2.09-6.15Zm6.42-2-1.92-5.63c-.43-1.27-.72-2.43-1-3.56h-.06c-.29,1.16-.61,2.35-1,3.54l-1.91,5.65Z" transform="translate(-142.23 -263.95)"/><path class="cls-1" d="M341.73,345h2.52v17.44h8.35v2.11H341.73Z" transform="translate(-142.23 -263.95)"/><path class="cls-1" d="M362,347.15h-6V345H370.5v2.15h-6v17.4H362Z" transform="translate(-142.23 -263.95)"/><path class="cls-1" d="M380.58,345v8.18H390V345h2.55v19.55H390v-9.16h-9.46v9.16h-2.52V345Z" transform="translate(-142.23 -263.95)"/><path class="cls-1" d="M413.56,361.48a9,9,0,0,0,4.52,1.27c2.58,0,4.09-1.36,4.09-3.33s-1-2.87-3.68-3.89c-3.19-1.13-5.17-2.78-5.17-5.54,0-3,2.53-5.31,6.33-5.31a8.91,8.91,0,0,1,4.32,1l-.7,2.06a7.72,7.72,0,0,0-3.71-.93c-2.67,0-3.68,1.6-3.68,2.93,0,1.83,1.19,2.73,3.88,3.77,3.31,1.28,5,2.87,5,5.75s-2.23,5.62-6.84,5.62a10.15,10.15,0,0,1-5-1.24Z" transform="translate(-142.23 -263.95)"/><path class="cls-1" d="M438,364.55v-8.29L431.77,345h2.87l2.76,5.4c.75,1.48,1.33,2.67,1.94,4h.06c.55-1.28,1.22-2.55,2-4l2.81-5.4h2.87l-6.55,11.23v8.32Z" transform="translate(-142.23 -263.95)"/><path class="cls-1" d="M454,361.48a9,9,0,0,0,4.53,1.27c2.58,0,4.09-1.36,4.09-3.33s-1.05-2.87-3.69-3.89c-3.19-1.13-5.16-2.78-5.16-5.54,0-3,2.53-5.31,6.32-5.31a8.92,8.92,0,0,1,4.33,1l-.7,2.06a7.75,7.75,0,0,0-3.71-.93c-2.67,0-3.69,1.6-3.69,2.93,0,1.83,1.19,2.73,3.89,3.77,3.31,1.28,5,2.87,5,5.75s-2.23,5.62-6.85,5.62a10.14,10.14,0,0,1-5-1.24Z" transform="translate(-142.23 -263.95)"/><path class="cls-1" d="M477.71,347.15h-5.95V345h14.47v2.15h-6v17.4h-2.55Z" transform="translate(-142.23 -263.95)"/><path class="cls-1" d="M503.92,355.39h-7.6v7.05h8.47v2.11h-11V345h10.56v2.12h-8v6.18h7.6Z" transform="translate(-142.23 -263.95)"/><path class="cls-1" d="M529.94,356c-.15-2.73-.32-6-.29-8.44h-.09c-.67,2.29-1.48,4.72-2.47,7.42l-3.45,9.49h-1.91l-3.16-9.32c-.93-2.75-1.72-5.27-2.27-7.59h0c-.06,2.43-.21,5.71-.38,8.64l-.52,8.38h-2.41L514.3,345h3.22l3.34,9.46c.81,2.41,1.48,4.55,2,6.58h.09c.49-2,1.19-4.12,2.06-6.58l3.48-9.46h3.22l1.22,19.55h-2.47Z" transform="translate(-142.23 -263.95)"/></svg>